<svg xmlns="http://www.w3.org/2000/svg" viewBox="0 0 758.58 623.35"><defs><style>.cls-1{fill:#fff;}</style></defs><title>Asset 3</title><g id="Layer_2" data-name="Layer 2"><g id="Layer_1-2" data-name="Layer 1"><path class="cls-1" d="M46.48,613.55H30c-2.88,0-3.66-.89-3.66-4.54v-3.88c0-3.88.66-4.65,3.54-4.65H41.27c3.21,0,3.54-3.1,2.33-5.43L31.08,571.45c-4.87-9.19-5.31-13.63-5.31-17.73,0-10.08,4.54-13.4,13.74-13.4H52.14c2.22,0,3.1,1.11,3.1,4v4.87c0,3.1-1,4.21-3.43,4.21H41.95c-3.65,0-4,2.66-2.23,5.87l11.85,21.82c5.87,10.85,6.76,15.06,6.76,20.6C58.33,610.56,53.57,613.55,46.48,613.55Z"/><path class="cls-1" d="M96.33,619.2l-7.52,3.87c-1.44.66-2.33.22-4-1.88l-4.55-6.75c-.78,0-1.66.11-2.55.11-17.83,0-17.72-16.06-17.72-38.1s-.32-36.89,17.51-36.89,18,14.85,18,36.89c0,14.29,0,26.14-4.87,32.57l6.2,6.65C98.32,617.2,98.32,618.31,96.33,619.2ZM77.51,553.51c-4.76,0-4.66,3.44-4.66,22.93s.11,24,4.87,24,5-4.54,5-24S82.27,553.51,77.51,553.51Z"/><path class="cls-1" d="M117.37,614.54c-14.73,0-17.61-7.86-17.61-21.49l-.21-47.86c0-3.77.89-4.87,3.88-4.87h5.87c2.66,0,3.32,1,3.32,4.54l.21,49.85c0,4.1,1.33,5.76,4.87,5.76,3.32,0,4.65-1.66,4.65-5.87l-.21-49.74c0-3.66.66-4.54,3.54-4.54h6.09c2.88,0,3.43.89,3.43,4.54l.21,47.64C135.43,604.57,133.1,614.54,117.37,614.54Z"/><path class="cls-1" d="M176.74,613.55H166.22c-1.11,0-1.66-.44-1.88-2l-2.1-15.62c-.22-1.44-.66-1.77-1.88-1.77H155.7c-1.22,0-1.66.22-1.88,1.77L152,611.77c-.11,1.44-.44,1.77-2,1.77H139.85c-1.33,0-2-.55-1.88-1.66l8.76-67.35c.44-3.21,1.55-4.21,4.65-4.21h12.85c2.66,0,3.88,1.11,4.32,4.32l9.85,67.24C178.51,613,177.85,613.55,176.74,613.55ZM158.8,554.4c-.11-1.22-.54-1-1.1-1s-.56-.11-.67,1.11l-1.88,25.37c-.11.66.33,1.22,1.44,1.22h2.77c1.11,0,1.66-.44,1.55-1.22Z"/><path class="cls-1" d="M203.43,613.55H185.49c-3.21,0-3.88-.77-3.88-4.76l-.21-63.47c0-3.66.89-5,3.54-5h18.94c12.3,0,13.5,9.2,13.5,36.23C217.39,608.67,215.07,613.55,203.43,613.55Zm-5.64-60.15c-3.1,0-3.56-.33-3.56,2.66v41.43c0,2.77.33,3,4.1,3,5.43,0,5.87-.55,5.87-22.82C204.21,553.07,203.89,553.39,197.8,553.39Z"/><path class="cls-1" d="M255.61,613.55H247c-2,0-2.55-.55-3-3.21l-4.54-26.58c-.22-1-.55-1-1.33-1h-1.55c-.66,0-1.22-.11-1.22,1v25.14c0,3.32-1,4.65-3.66,4.65h-6c-2.77,0-3.54-1-3.54-4.76l-.21-63.47c0-3.77.89-5,3.77-5h15.84c10.3,0,15.39,6.76,15.39,22.16,0,8.31-1.66,13-6,16.61l6.42,31.46a9.21,9.21,0,0,1,.22,1.44C257.6,613.1,257,613.55,255.61,613.55Zm-15.5-60.15h-3.54c-.89,0-1.23,0-1.23.89v13.4c0,1.44.33,2,1.11,2h3.66c2.66,0,4-2.55,4-8.86S242.43,553.39,240.11,553.39Z"/><path class="cls-1" d="M277.87,614.54c-17.94,0-17.83-16.06-17.83-38.1s-.32-36.89,17.62-36.89,18,14.85,18,36.89S295.7,614.54,277.87,614.54Zm-.21-61c-4.76,0-4.66,3.44-4.66,22.93s.11,24,4.87,24,4.87-4.54,4.87-24S282.42,553.51,277.66,553.51Z"/><path class="cls-1" d="M334.14,613.55H329c-2.66,0-3.21-.33-4.32-3.43l-9.3-27.58c-.44-1.33-.78-1.55-1.22-1.55s-.55.44-.55,2.1v25.59c0,3.43-.78,4.87-3.43,4.87h-5.76c-2.44,0-4-.67-4-5l-.21-63.36c0-3.88.78-4.87,3.88-4.87h5.1c2.66,0,3.21.33,4.32,3.43l9.52,26.81c.44,1.33.78,1.55,1.22,1.55s.55-.44.55-2.1l-.21-24.82c0-3.43.77-4.87,3.43-4.87h5.76c2.44,0,4,.67,4,5l.21,63.25C338,612.44,337.24,613.55,334.14,613.55Z"/><path class="cls-1" d="M374.12,613.55h-5.54c-3.1,0-3.88-.89-3.88-4.87l-.21-63.36c0-3.88.89-5,3.66-5h6c2.55,0,3.43,1.22,3.43,5l.21,63.59C377.78,612.88,376.89,613.55,374.12,613.55Z"/><path class="cls-1" d="M417.21,613.55h-5.09c-2.66,0-3.21-.33-4.32-3.43l-9.3-27.58c-.44-1.33-.78-1.55-1.22-1.55s-.55.44-.55,2.1v25.59c0,3.43-.78,4.87-3.43,4.87h-5.76c-2.44,0-4-.67-4-5l-.21-63.36c0-3.88.78-4.87,3.88-4.87h5.1c2.66,0,3.21.33,4.32,3.43l9.52,26.81c.44,1.33.78,1.55,1.22,1.55s.55-.44.55-2.1l-.21-24.82c0-3.43.77-4.87,3.43-4.87h5.76c2.44,0,4,.67,4,5l.21,63.25C421.09,612.44,420.31,613.55,417.21,613.55Z"/><path class="cls-1" d="M454.88,553.39h-5.76c-1.11,0-1.23-.22-1.23,1.55v53.72c0,3.88-.66,4.87-3.54,4.87h-5.76c-3,0-3.77-1-3.77-4.54V554.95c0-2-.77-1.55-1.65-1.55h-5.76c-2.66,0-3.32-.78-3.32-4.43V545.2c0-3.88.77-4.87,3.65-4.87h27c2.66,0,3.54,1.11,3.54,4.43v4.1C458.31,552.4,457.54,553.39,454.88,553.39Z"/><path class="cls-1" d="M488.1,613.55H465.5c-3,0-3.77-1-3.77-4.87l-.21-63.47c0-3.66,1-4.87,3.77-4.87h21.93c2.77,0,3.54.78,3.54,4.32v4.1c0,3.66-.78,4.65-3.54,4.65H476.37c-1.66,0-1.78-.22-1.78,1.78v10.3c0,2.1.11,2.33,2,2.33h5.54c2.44,0,3.21.78,3.21,3.77v5.65c0,2.88-.89,3.65-3.21,3.65h-5.54c-1.55,0-2,.33-2,1.66V598c0,1.77.33,2.44,2.33,2.44h11c3,0,4,1.22,4,4.76v3.54C491.86,612.22,490.76,613.55,488.1,613.55Z"/><path class="cls-1" d="M528.53,613.55h-8.64c-2,0-2.55-.55-3-3.21l-4.54-26.58c-.22-1-.55-1-1.33-1h-1.55c-.66,0-1.22-.11-1.22,1v25.14c0,3.32-1,4.65-3.66,4.65h-6c-2.77,0-3.54-1-3.54-4.76l-.21-63.47c0-3.77.89-5,3.77-5h15.84c10.3,0,15.39,6.76,15.39,22.16,0,8.31-1.66,13-6,16.61l6.42,31.46a9.21,9.21,0,0,1,.22,1.44C530.52,613.1,530,613.55,528.53,613.55ZM513,553.39h-3.54c-.89,0-1.23,0-1.23.89v13.4c0,1.44.33,2,1.11,2H513c2.66,0,4-2.55,4-8.86S515.36,553.39,513,553.39Z"/><path class="cls-1" d="M571.28,613.55H560.76c-1.11,0-1.66-.44-1.88-2l-2.1-15.62c-.22-1.44-.66-1.77-1.88-1.77h-4.65c-1.22,0-1.66.22-1.88,1.77l-1.77,15.84c-.11,1.44-.44,1.77-2,1.77H534.4c-1.33,0-2-.55-1.88-1.66l8.76-67.35c.44-3.21,1.55-4.21,4.65-4.21h12.85c2.66,0,3.88,1.11,4.32,4.32l9.85,67.24C573.05,613,572.39,613.55,571.28,613.55ZM553.34,554.4c-.11-1.22-.54-1-1.1-1s-.56-.11-.67,1.11l-1.88,25.37c-.11.66.33,1.22,1.44,1.22h2.77c1.11,0,1.66-.44,1.55-1.22Z"/><path class="cls-1" d="M600.42,553.39H592c-4.21,0-4.33,0-4.33,23.38,0,23,.55,23.7,4.32,23.7h8.64c2.66,0,3.54,1,3.54,3.77v5.32c0,3-.89,4-3.32,4H587.68c-11.19,0-13.29-6.2-13.29-35.56-.11-29.69.45-37.67,12.53-37.67h13.74c2.55,0,3.43,1,3.43,3.88v5C604.08,552.62,603.41,553.39,600.42,553.39Z"/><path class="cls-1" d="M637.31,553.39h-5.76c-1.11,0-1.23-.22-1.23,1.55v53.72c0,3.88-.66,4.87-3.54,4.87H621c-3,0-3.77-1-3.77-4.54V554.95c0-2-.77-1.55-1.65-1.55h-5.76c-2.66,0-3.32-.78-3.32-4.43V545.2c0-3.88.77-4.87,3.65-4.87h27c2.66,0,3.54,1.11,3.54,4.43v4.1C640.74,552.4,640,553.39,637.31,553.39Z"/><path class="cls-1" d="M653.58,613.55H648c-3.1,0-3.88-.89-3.88-4.87L644,545.31c0-3.88.89-5,3.66-5h6c2.55,0,3.43,1.22,3.43,5l.21,63.59C657.23,612.88,656.35,613.55,653.58,613.55Z"/><path class="cls-1" d="M689.13,610.56c-.33,2.22-1.11,3-3,3H674.4c-1.88,0-2.66-.77-3-3l-11.18-67.24c-.33-2.21,0-3,2-3h8.53c1.77,0,2.55.33,3,3.55l5.53,41.43q.17,1.66,1,1.66t1-1.66l5.11-41.43c.44-3.21,1.22-3.55,3-3.55h8.53c2,0,2.33.78,2,3Z"/><path class="cls-1" d="M729.67,613.55h-22.6c-3,0-3.77-1-3.77-4.87l-.21-63.47c0-3.66,1-4.87,3.77-4.87H728.8c2.77,0,3.54.78,3.54,4.32v4.1c0,3.66-.78,4.65-3.54,4.65H717.94c-1.66,0-1.78-.22-1.78,1.78v10.3c0,2.1.11,2.33,2,2.33h5.54c2.44,0,3.21.78,3.21,3.77v5.65c0,2.88-.89,3.65-3.21,3.65h-5.54c-1.55,0-2,.33-2,1.66V598c0,1.77.33,2.44,2.33,2.44h11c3,0,4,1.22,4,4.76v3.54C733.44,612.22,732.33,613.55,729.67,613.55Z"/><path class="cls-1" d="M162.56,401.16c30.74-5.21,55,3.77,70.61,32,1.13,2,2.17,3.71,5.16,3.27a20.58,20.58,0,0,1,16.48,4.26c3.72,3,5.83-.27,8.44-1.77l5.42-2.92c11.11-1.12,21.72-.78,31.71,5.72,4.59,3,10.79.54,16.24,1,2.45.2,6-.7,5.8,3.16-.13,2.83-3.15,2.62-5.43,2.61h-8.52c3.65,8.63,4,18.26,17.09,17.13,5.82-.51,10.12,5.18,14.09,9.53l2.54,7c-.54,3,1.37,7.39-3.19,8.14-4.87.8-4.1-3.75-4.94-6.71-1.62-5.76-5.26-9.78-11.26-11-5.55-1.11-10.39.52-13.88,5.11-1.89,2.48-4.18,4.63-.61,8.25,4.73,4.8,2.1,7.33-3.61,6.22-5.29-1-8.12.68-9.49,5.59-.79,2.83-3.91,5.74-5.18,3.26-3.4-6.63-8.78-5-13.94-5.29-1.76-.09-3.56-.8-3.71-2.53-.21-2.47,1.92-2.84,3.94-3.14,5-.76,10.48,1.94,15.08-1.75,7.66-6.16,13.39-14.39,14.26-23.73.83-8.86-9.58-18.48-19.39-20.78-11.15-2.62-20.74.4-27.93,9.43-2.38,3-3.79,6.76-5.57,10.22-1,1.87-2.17,3.52-4.45,2.8-2.49-.8-3.49-2.78-2.74-5.4a30.67,30.67,0,0,0,1.44-4.66c.39-3.42,7.11-5.87,2.09-9.89-4.42-3.54-9.75-3.2-14.84-.94a20,20,0,0,0-3.22,2.16c-2.63,1.87-4.7,7-8.66,2.82-3.28-3.42.54-5.91,2.81-7.95,2.62-2.36,1.61-4.27.41-6.83-14.06-29.85-56.26-37.84-80.37-15.08a5.25,5.25,0,0,0,1.2,1c3.2,1.32,9.59-2.67,9.43,3-.15,5.32-6.62,2.94-9.8,2.49-11-1.53-12.54,7-15.88,13.74-2.13,4.3,2.68,4.3,4.23,6.31,1.19,1.54,2.82,2.87,1.38,5s-3.31,2.82-5.77,1.26c-10.75-6.84-20.33-5.06-28.84,4.08-1.67,1.79-3.53,3.18-5.88,1.23-2.8-2.32-1.4-4.67.38-6.76,5.1-6,11.64-9.61,19.43-10.06,4.44-.26,6.86-1.38,8.6-5.86a52.18,52.18,0,0,1,20.7-25.35c5.2-3.34,4.85-6.42,2.57-11.18-11.86-24.86-45.25-30.91-65.23-11.64-1.64,1.58-3.11,3.33-4.62,5s-3.37,3.31-5.81,1.47-1.23-3.81-.57-6.11c.84-2.89,7.81-4.23,3.18-8-4.1-3.34-9.31-1.77-13.52,1.51-.76.59-1.33,1.41-2,2.08-2.3,2.19-3.47,8.12-7.84,4.47-4.89-4.08.28-7.67,2.77-10.5,6.49-7.37,16.11-8.62,25.89-3.9,2.16,1,3.5,2.95,6.82,1.28,25.19-12.65,46.54-6.81,64.44,14.2.37.44,1.15.54,1.74.79,2.14,2.58,1.69,5.93,2.67,8.82C156.27,403,158.84,404.6,162.56,401.16Z"/><path class="cls-1" d="M441.88,490.55c-3-4-5.78-8.37-12.08-6.72-1.86.49-3.95.32-3.67-2.75.24-2.64,1.87-2.94,4-3,14.81-.25,23.08-10.41,31.06-20.82,2.8-3.65,5.56-7.73,10-8.8,8-1.93,8.91-6.82,7.17-13.5l.38-5.89c3.11-17.82,11.9-31.82,27.89-40.77,3.25-1.82,5-3.85,4-7.62l1.35-7.07c4.33-13.06,12.81-21.75,26.51-24.62a7.34,7.34,0,0,0,5.72-4.53c2-4.19,4.85-8.37,9.16-9.8,8.32-2.76,11.52-7.9,11-16.43a21.59,21.59,0,0,1,2.12-9.47c4.07-9.41,8.34-18.59,2.9-29-.9-1.74-.45-4.68.33-6.7,1.41-3.63,1.44-10.09,7-8.77,6.11,1.46,1.45,6.26.85,9.66s-1.2,7,1.6,10.9c11.51-11.25,24.57-19.12,40.77-20.7a62.49,62.49,0,0,1,17.51.6c3.38.62,8.38.44,7.25,5.55-.93,4.24-5.28,2.46-8.39,2-24.09-3.54-42.61,5.42-56.31,25.14-.33.48-.34,1.18-.81,2.94h20.36c-2.72,8.4-8.9,6.49-13.25,5.81-10.07-1.57-13.13,3.25-14.17,12.08a64.06,64.06,0,0,0,1.41,23.25c.77,3.11,1.33,6.2-2.55,7.06-3.38.75-4.48-2.41-4.84-4.89-1.07-7.27-4.67-5.37-8.6-2.67-6.21,4.27-8.8,10.25-8.07,17.69.26,2.66.71,5.64-2.67,6.4s-4.56-1.85-4.92-4.63c-.59-4.69-3.36-3.83-6.32-2.67a25.71,25.71,0,0,0-12.55,10.44c-2.48,3.91-5.35,8.87-3.43,12.71s7,.36,10.72.26c12.43-.34,24,2.44,34.12,9.71,3.63,2.61,6.14,4.22,9.5-.06,1.1-1.4,3.26-2.12,5.06-2.81,3.9-1.5,9.07-4.12,11,1.29,1.78,5.12-4,4.29-7.11,5.4-5.88,2.13-9,5.31-3.58,11.15a2.28,2.28,0,0,1,.5.84c1.29,4.13,8.43,8.74,2,12.26-5.68,3.1-6.35-4.81-8.49-8.16-18.06-28.24-60.78-29.5-77-1.77.91.27,1.74.46,2.54.76,2.9,1.06,8.59-2.46,8.39,3-.19,5.07-5.83,2.73-8.76,2.48-6.13-.51-8.83,2.08-10.28,7.62-1.33,5.12-1.53,10.25-1.76,15.47-.25,5.48,2.25,8.37,7.28,9.88,2.26.68,4.27,2.4,3.26,5.12-1.16,3.11-3.5,3.2-6.36,1.81-6.38-3.1-12.88-3.1-18.29,1.67-3.61,3.19-10.51,7.08-1.14,12a3.07,3.07,0,0,1,1.45,4.16,4.49,4.49,0,0,1-4.76,2.56c-15.46-1.15-15.43-1.09-22.18,13.06-.45.94-2.05,1.34-3.1,2Z"/><path class="cls-1" d="M284.57,186.2c-6.45,6.43-9,13.84-12.09,20.68-13.55,29.73-21.38,60.35-10.71,92.82C278.12,349.46,329,365,373.92,334.16c4-2.76,7.72-6,11.52-9,1.84-1.47,3.87-3.27,5.8-.73,1.42,1.87-.16,3.65-1.71,5-24.65,21-52.47,32.95-84.76,22.92-32-9.93-47.56-34.91-52.4-66.88-5.45-36,6.85-68.17,23.78-98.87,15.48-28.08,34.65-53.6,56.41-77.14,1.91-2.07,3.84-7.12,7.33-3.72,3.06,3-1.32,5.7-3.23,8-20.29,24.6-36.75,51.31-46.08,82.08-.75,2.46-.79,7.11-4.72,6.09-4.13-1.08-1.55-4.78-.93-7.43C285.44,192.26,286.34,190.1,284.57,186.2Zm2.11-5.2a18.93,18.93,0,0,0-2.14,3.28,2.35,2.35,0,0,0,.64,2.19c2.29,1,2.24-1.24,2.76-2.41C288.38,183.11,289.17,181.77,286.68,181Z"/><path class="cls-1" d="M678.89,368.88c-3.56.15-7.13.45-10.69.41-2.92,0-5.07.52-5.61,3.88-.48,3,.1,5,3.57,5.57,2.84.51,6.46,1.39,5.4,5.33-1.3,4.81-5.19,2.36-8.18,1.93-16-2.28-28.76,8.28-29.72,23.36-.78,12.17,8.91,9.82,15.2,12.34.72.29,1.84-.64,2.77-.64,4.39,0,8.33,1.18,11,5,.89,1.28.18,2.63-.81,3.46-4,3.42-7.19-.56-10.68-1.48-9.91-2.61-18.48.65-26.61,5.86-2.76,1.77-5.34,6.53-8.76,2s1.79-6.92,4.32-8c7.41-3.24,7.61-7.88,6.51-15.18-2.19-14.57,6.45-28.07,20.61-32.72,5.68-1.87,7.12-4.64,8.2-9.92,4.55-22.11,32.17-31.25,49.31-16.56,2.35,2,6.15,4.16,3.37,7.86-3.09,4.11-5.47.21-7.95-1.62-11.39-8.44-21.76-7.6-32.13,2.57,3.3,4.77,10.52-1.95,13.22,4.48Z"/><path class="cls-1" d="M162.56,401.16c-3.72,3.44-6.29,1.84-7.66-2.16-1-2.89-.54-6.25-2.67-8.82-.57-17.18-3.59-34.17-2.09-51.54,2.94-34.05,13.46-65.51,30.27-95,1.28-2.25,2.27-6.91,5.75-4.94,4.12,2.33.43,5.78-1,8.33-16.9,29.93-27.26,61.82-29.45,96.26C154.44,363,157.08,382.25,162.56,401.16Z"/><path class="cls-1" d="M328.49,313.93c-22.07-.1-41.95-14.79-46.68-34.62-.56-2.36-2.39-5.6.85-7,3.84-1.61,3.78,2.33,4.6,4.52,10.22,27.35,33.85,38.23,61.15,27.82,24.77-9.45,40.57-27.46,48.76-52.43.51-1.55.89-3.13,1.31-4.71.52-1.93,1.2-4.23,3.61-3.66,2.13.5,2.73,2.77,2.06,4.81-1.93,5.86-3.58,11.87-6.15,17.45C384.9,294.5,356.25,314.06,328.49,313.93Z"/><path class="cls-1" d="M277.37,393.81c3.28-1.4,5.29.76,7.61,2.65,35.31,28.74,77,37.68,121.14,39.06,3.51.11,10-2.3,10,2.46.05,6.19-6.66,3.15-10.17,3.09-44.54-.74-86.48-10.07-122.44-38.31-2.91-2.28-7.21-3.83-6.13-8.94Z"/><path class="cls-1" d="M339.33,159.55c33.47,0,55.68,19.43,63.1,51.33,1,4.49,5.82,12.18-.23,13.72-5.37,1.36-4-7.41-5-11.62-10.22-42.65-45.61-59.14-84.48-39.14-2.28,1.17-5.05,5.15-7.35,1.63-2.9-4.46,2.4-5.06,4.81-6.42C320.84,163,332.27,159.63,339.33,159.55Z"/><path class="cls-1" d="M408.74,406c-27.65-.24-50-3.75-71.7-11.53-2.57-.92-6.94-1.41-5.74-5,1.31-4,5.07-1.3,7.54-.42,35.63,12.64,72,13.8,108.83,7,2.67-.49,7.1-3.77,7.79,1.67.49,3.84-4.21,3.45-6.75,3.87C433.93,404,419.14,406.42,408.74,406Z"/><path class="cls-1" d="M611.63,477c-5.33,6.5-10,12.68-15.27,18.28-1.2,1.28-3.28-1-4-3-3.8-9.64-10.48-11.76-19.08-6A19.41,19.41,0,0,0,564.72,500c-.37,2.27-1.32,4.57-4.22,4.53-1.72,0-3.58-1.18-3.34-2.86,1.23-8.75-4.89-6.84-9.75-7.14-2.62-.16-7,1.47-7-2.79,0-4,4.4-3,7-2.8,7.81.7,14.1-.85,19.59-7.38,4.27-5.08,11.28-6.5,17.92-5.83,6.82.69,13.4,4,20.23-.84A4.33,4.33,0,0,1,611.63,477Z"/><path class="cls-1" d="M37.46,466.51c.35,7.38.58,13.73,6.86,17.92,1.35.9,1.9,3.31,2.38,5.14.69,2.64.7,5.41-2.6,6.37-2.86.83-4.18-1.18-4.78-3.55-.49-2-1.05-3.76-3.6-5.24-1.64-.42-2.33,1.89-3.7,2.95-2.12,1.65-4.24,3.48-6.75.92s-.42-4.62,1.3-6.6c5.24-6,5.7-12.46.21-18.34-5.85-6.27-12.54-6.06-19-.59-2.24,1.9-4.45,3.12-6.71.56-2.45-2.78-.2-4.83,1.75-6.54,7.08-6.19,15.56-8,23.41-3.21,6.26,3.83,12.3,4.87,19.16,4.66,2.61-.08,7-1.32,6.84,2.92-.19,4-4.56,2.38-7.24,2.6C42.75,466.65,40.48,466.51,37.46,466.51Z"/><path class="cls-1" d="M268.67,436,263.25,439c-25.73-24.84-42.58-54.55-49.27-89.82-.42-2.23-.93-4.45-1.2-6.7-.29-2.46-1.51-6,2-6.5s3.41,3.24,3.79,5.63C224.39,378.81,241.28,410.2,268.67,436Z"/><path class="cls-1" d="M188.81,315.77c3.88-33.43,13.42-64.84,32.88-92.74,1.27-1.83,2.79-4.27,5.41-2.46s.69,4.06-.55,5.86c-18.48,26.89-28,56.94-31.58,89.1-.25,2.22-.36,5.13-3.2,5.24C188.64,320.91,188.8,318.08,188.81,315.77Z"/><path class="cls-1" d="M441.88,490.55l.73.19c-1.61,5.82-3.09,6.53-11.59,6.13a389.77,389.77,0,0,1-88.83-14.68l-2.54-7c30.78,9.78,62.42,14.51,94.59,16.07A54.49,54.49,0,0,0,441.88,490.55Z"/><path class="cls-1" d="M745.52,462.35c-.77,2.21-1.31,3.65-1.79,5.11-.79,2.39-2.19,4.28-4.92,3.54s-2.86-2.82-2.7-5.41c1.15-19.37-2.36-23.63-21.69-26.36-2.51-.35-4.68-.82-4.73-3.67s2.23-3.55,4.6-4.06c10.28-2.21,23.82,5.23,28.35,16.35,1.68,4.14,3.5,6.92,7.84,8.76,5.91,2.51,8.43,7.89,8.08,14.31-.13,2.39-1.49,4.71-4,4.9s-4.14-1.77-4-4.4C750.75,467.89,749.75,465,745.52,462.35Z"/><path class="cls-1" d="M211.24,206.34a9.68,9.68,0,0,1,2.82-8.6c20.44-21.55,43.79-38.87,71.53-49.87,2.27-.9,5.66-4.35,7.57-.25s-2.74,4.45-5.05,5.37c-26.2,10.38-48.39,26.52-67.76,46.76-2.66,2.77-5.22,5.61-9.18,6.52Z"/><path class="cls-1" d="M336.62,143.4c-3.87-1.64-12.88,3-12.82-2.14.08-6.53,9-3.39,13.85-3.52,16.21-.42,31.6,3.58,46,11,2.72,1.4,8.46,2.24,6.06,6.78s-5.56-.43-8-1.61C367.65,147.28,353.06,143.28,336.62,143.4Z"/><path class="cls-1" d="M425.47,260.55c2.78-.16,3.47,1.69,3,3.77-4.67,19.66-13.88,37-26.82,52.46-1.22,1.45-2.89,2-4.19.7-2.22-2.21-.36-4.11,1-5.92,8-10.31,14.94-21.27,19.56-33.56,1.6-4.26,2.95-8.61,4.3-13C422.91,263.18,423.14,261.16,425.47,260.55Z"/><path class="cls-1" d="M175.06,490c-1.79,2.52,1.8,7-2.81,8.19-4,1.07-4.74-2.43-6.24-4.78-2.75-4.32-6.66-4.66-11.08-3.25-2.9.92-5.43.45-6-2.82-.52-2.79,2.11-4.48,4.12-4.54,9.07-.26,18.18-.33,27.22.29,2.48.17,6.06,2.94,4.81,6.18C182.76,495.12,178.52,489.85,175.06,490Z"/><path class="cls-1" d="M478.77,429.09l-.38,5.89q-19.84,2.51-39.68,5c-2.25.28-5.28.82-5.84-1.91-.77-3.74,2.86-3.74,5.24-4C451.65,432.29,465.21,430.72,478.77,429.09Z"/><path class="cls-1" d="M209.28,309.79c-1.25-7,2.33-14.11,2-21.59-.11-2.32,1-4.79,3.77-4.7,3.38.1,4.43,3,3.72,5.55-2.8,10.19-1.17,20.55-1.65,30.81-.13,2.84.31,6.7-3.6,6.69-3.5,0-3.92-3.78-4.16-6.61C209.07,316.75,209.28,313.51,209.28,309.79Z"/><path class="cls-1" d="M512,373.64l-1.35,7.07c-8.32,3.49-16.65,6.95-24.95,10.5-2.32,1-4.67,1.6-5.49-1.43-.6-2.21,1.47-3.12,3.34-3.91C493.1,381.85,502.56,377.73,512,373.64Z"/><path class="cls-1" d="M721.1,494.55c-3.55-1.41-11.62,2.77-11.69-2.73-.07-5.74,7.86-2.16,12.2-2.89,3.47-.58,7.11-.18,10.67-.13,2,0,4.19.35,4.31,2.76s-2,3-4.07,3Z"/><path class="cls-1" d="M105.45,495c3.81,1.93,11.49-2.55,11.43,2.73-.07,6.37-7.77,2.75-11.89,2.85s-12.1,3.08-12-2.69C93.05,492.63,101.08,496.65,105.45,495Z"/><path class="cls-1" d="M75.66,229l-7.17,8.73-8-7.43c2.51-2.67,4.91-7.32,7.55-7.45S73.48,227.09,75.66,229Z"/><path class="cls-1" d="M731.2,298.75c-4.82,1.11-6,7.09-9,6.64-3.18-.48-7.92-4.42-7.34-7.93.37-2.25,4-7.57,7.6-6.89C725.44,291.12,727.73,295.3,731.2,298.75Z"/><path class="cls-1" d="M422.42,117.27c-2.72,3.17-4.79,7.74-7.54,8.2-3.27.55-5.1-4.6-7.83-7,2.47-2.62,4.67-7,7.48-7.42C417.79,110.57,418.72,116.57,422.42,117.27Z"/><path class="cls-1" d="M193.51,339.9c.41,5.32,3.45,14-2.12,14-6.74-.07-3.09-9-3.28-13.9-.17-4.57-3.13-13.3,2.95-13.13C196.9,327,192.85,335.62,193.51,339.9Z"/><path class="cls-1" d="M470.94,324.83l-7.17,8.69c-2.72-2.37-7.41-4.56-7.66-7.17-.34-3.52,4.14-7.48,7.39-7.81C466.48,318.24,467.8,323.93,470.94,324.83Z"/><path class="cls-1" d="M111.1,323.23c-2,2.5-4.34,7.79-6.5,7.71-3.43-.13-7.68-4.49-7.69-7.86,0-2.49,4.9-5,7.61-7.48Z"/><path class="cls-1" d="M556.89,189.6c-3.33-5.36-12-8.13-3.13-15.1,2.87-2.24,3.19-1.67,5.75.31C568.78,182,558.75,184.23,556.89,189.6Z"/><path class="cls-1" d="M373.18,214.51c-.33-5.53-7-5.78-5.6-10.11.77-2.34,3.54-6.76,7.14-5.66,2.68.82,7.08,3.49,6.46,6.46S376.77,210.57,373.18,214.51Z"/><path class="cls-1" d="M170.56,153.53c.22,5.12,6.74,5.22,5.73,9.38-.61,2.53-4.23,5.71-6.83,6-3.08.39-6.29-3.76-6.31-6.28C163.12,159.35,166.66,156.73,170.56,153.53Z"/><path class="cls-1" d="M672.47,286.14c3.1,1.05,8.76-2,8.69,3.1-.06,4.77-5.61,2.61-8.71,2.65s-9,1.86-9.09-2.29C663.2,283.72,669.36,287.45,672.47,286.14Z"/><path class="cls-1" d="M277.37,393.81s-9.35-4.31-12.68-8.43c-1.2-1.48-2.57-3.11-.69-5s3.44-.38,4.77,1C272.44,385,276.81,388.1,277.37,393.81Z"/><path class="cls-1" d="M211.17,206.27a38.73,38.73,0,0,1-8.6,14.07c-1.14,1.23-2.5,2.3-4.11,1s-1.24-2.83-.34-4.35c3.07-5.16,6.95-9.32,13.12-10.65Z"/><path class="cls-1" d="M473.32,394c-2.45,3.27-6.91,3.19-10.81,4.16-2.49.62-4.39-1.61-3.42-3.21,2.42-4,7.34-3.54,11.31-4.61C472,390,473.51,391.13,473.32,394Z"/><path class="cls-1" d="M748.06,494.57c-2.5-.09-5.85.39-5.55-3.29.21-2.59,3.19-2.6,5.43-2.5,2.44.1,5.73-.43,5.44,3.37C753.15,495.26,750.14,494.37,748.06,494.57Z"/><path class="cls-1" d="M169,427.31c-3.16-.32-7.68,1-7.74-2.61-.06-4.56,4.73-3,7.63-3.07,2.64-.06,7-1.24,6.84,2.9S171.16,426.76,169,427.31Z"/><path class="cls-1" d="M517.81,415.54c-2.3.06-5.29,0-5.12-2.81.21-3.48,3.61-2.75,6.1-2.84s5.36.23,5.19,2.84C523.76,416.06,520.34,415.51,517.81,415.54Z"/><path class="cls-1" d="M678.89,368.88l2.33-2.13C681.23,368.32,680.38,368.95,678.89,368.88Z"/><path class="cls-1" d="M286.68,181c2.49.77,1.7,2.11,1.27,3.06-.52,1.17-.48,3.41-2.76,2.41a2.35,2.35,0,0,1-.64-2.19A18.93,18.93,0,0,1,286.68,181Z"/><path class="cls-1" d="M371.69,85.59c3.31-.42,6.41-.18,9.73-.6.62,9.78-3.87-1.86-6.5.82C374.79,84.77,371.81,86.63,371.69,85.59Z"/><path class="cls-1" d="M356,73.16c-3.48-5.45-5.8.78-8.73,1-2.71.23-5.62,3.36-8,.53-2.12-2.47.73-4.8,2-6.9,4.22-7,8.62-13.84,12.89-20.78,2.66-4.32,5.54-8,11.48-7.53,5.23.42,5.72-4.7,7.62-7.67,10.71-16.77,25-27.92,45.05-31.46,9.26-1.64,12.38,2.11,12.37,10.8,0,19.1-7.49,34.79-21.1,47.81-4.07,3.89-9.64,6.56-7.26,14.19,1,3.07-2.4,5.83-4.82,8.06C391.24,87,385,92.74,378.67,98.36c-1.85,1.64-3.55,4.81-6.34,3.64-3.74-1.56-1.63-5-1.28-7.79.2-1.62,3-5.54,3.28-7.15,1.82-6.37,7-2,7.08-2.07l-.05,0c2.72,2.12,3.52.34,4.05-2l-.13.1c7.29-4.28,15.62-7.81,8.17-18.88-2.45-3.64-3.22-7.65,4.58-5.78,6.22,1.5,24.36-22.28,22.83-28.87-.27-1.17-1.39-2.16-2.18-3.18C406,10.17,398.24,10,384.81,25.64a43.6,43.6,0,0,0-5.19,7.06c-1.38,2.49-5.1,5-3.74,7.49,4.71,8.79-1.56,6.54-5.48,5.58-7.24-1.77-11.24.74-12.6,7.91l.16-.06c-1.93.26-2.48,1.8-2.47,3.3s1.21,1.78,2.53,1.19c-.08,2.17-.28,4.39,2.21,5.53a12.11,12.11,0,0,0,0,7.57C358.57,71.31,357,71.57,356,73.16Zm68-50.48c.31-3.88.77-6.09.59-8.24-.27-3.23,1.57-8.08-3.51-8.62-3.95-.42-9.61-.47-11.4,3.29s4,4.78,6.18,7.29C417.63,18.49,420.26,19.88,424,22.67Z"/><path class="cls-1" d="M356,73.16c1-1.59,2.56-1.85,4.22-1.95,12.47,11.07,12.47,11.07,25.88.53.25-.2.47-.45.73-.64,1.5-1.14,3.07-3,5-1.21,2.32,2.17.46,3.9-1,5.75-1.94,2.42-6.32,3.1-5.52,7.52l.13-.1c-2.55-1.76-3.4-.1-4.05,2l.05,0-9.94,1.26c-4.89,2.74-8.62,5-14.58-.29S352,77.73,356,73.16Z"/><path class="cls-1" d="M357.8,53.68c4.67,2.32,4.49-8.81,8.79-3.82,3.22,3.74-2.88,7-4.17,10.7a13.32,13.32,0,0,1-2.2,3.09c-2.49-1.14-2.29-3.36-2.21-5.53-.12-1.5,2.34-3-.06-4.49Z"/><path class="cls-1" d="M353,63.49"/><path class="cls-1" d="M411,33.39c-.21,7.68-7,15.37-12.67,14-6-1.44-10.74-5.62-10.34-12.42.42-7.09,4.8-11.38,12.16-11.18C406.51,24,410.22,27.65,411,33.39Zm-5.48,2.11c-.25-3.58-2-6.27-5.82-6.24a5.74,5.74,0,0,0-6.1,6.14A5.8,5.8,0,0,0,399,41.25C402.9,41.72,404.87,39.27,405.53,35.5Z"/></g></g></svg>